<svg width="136" height="32" viewBox="0 0 136 32" fill="none" xmlns="http://www.w3.org/2000/svg">
<path d="M4.71546 18.7623C3.85042 18.2926 3.52992 17.2107 3.9996 16.3456L4.4248 15.5625L11.7711 19.5512C11.9153 19.6295 11.9687 19.8098 11.8904 19.954L11.3235 20.9981C11.0103 21.5749 10.289 21.7885 9.71229 21.4754L4.71546 18.7623Z" fill="white"/>
<path d="M29.4401 13.0521C30.301 13.5293 30.612 14.6141 30.1348 15.475L29.7028 16.2544L22.0359 12.0046C21.8924 11.925 21.8406 11.7442 21.9201 11.6008L22.4962 10.5616C22.8143 9.98764 23.5375 9.78027 24.1114 10.0984L29.4401 13.0521Z" fill="white"/>
<path d="M12.8444 29.2077C11.9793 28.7381 11.6588 27.656 12.1284 26.791L12.5537 26.0078L19.738 29.9086C19.8822 29.9869 19.9357 30.1673 19.8574 30.3114L19.2904 31.3557C18.9773 31.9323 18.256 32.1459 17.6792 31.8329L12.8444 29.2077Z" fill="white"/>
<path d="M14.5754 0.21632C15.4404 -0.253356 16.5224 0.0671463 16.9921 0.932181L17.4174 1.71533L4.62829 8.6592L3.9196 7.35397C3.60649 6.77728 3.82015 6.05595 4.39685 5.74283L14.5754 0.21632Z" fill="white"/>
<path d="M29.4093 26.155C30.2744 25.6852 30.5948 24.6033 30.1251 23.7382L29.7 22.9551L16.5918 30.0722L17.3005 31.3775C17.6136 31.9541 18.3349 32.1678 18.9116 31.8547L29.4093 26.155Z" fill="white"/>
<path d="M21.5504 22.0788C22.4154 21.6091 22.736 20.5271 22.2662 19.6621L21.841 18.8789L12.899 23.7341C12.0339 24.2038 11.7135 25.2857 12.1831 26.1508L12.6083 26.9339L21.5504 22.0788Z" fill="white"/>
<path d="M21.2484 8.03384C22.1134 7.56416 22.4339 6.48216 21.9643 5.61712L21.539 4.83398L12.2973 9.85186C11.7205 10.165 11.5069 10.8863 11.82 11.463L12.5287 12.7682L21.2484 8.03384Z" fill="white"/>
<path d="M21.2739 3.01069C22.1354 3.48658 22.4481 4.57085 21.9723 5.43248L21.5414 6.21255L14.084 2.09374L14.8021 0.793633C15.1193 0.219212 15.8422 0.0107409 16.4166 0.328001L21.2739 3.01069Z" fill="white"/>
<path d="M21.8393 20.0711L22.2702 19.291C22.746 18.4294 22.4333 17.3451 21.5717 16.8691L12.5754 11.9004L11.8573 13.2004C11.5401 13.775 11.7485 14.4977 12.3229 14.8151L21.8393 20.0711Z" fill="white"/>
<path d="M3.74609 7.16117C3.74609 6.17685 4.54405 5.37891 5.52837 5.37891H6.41949V18.8944H5.52837C4.54405 18.8944 3.74609 18.0964 3.74609 17.1121V7.16117Z" fill="white"/>
<path d="M22.1949 4.62406C22.1949 3.63975 21.3969 2.8418 20.4126 2.8418H19.5215V8.18859H20.4126C21.3969 8.18859 22.1949 7.39064 22.1949 6.40633V4.62406Z" fill="white"/>
<path d="M22.4938 18.5068C22.4938 17.5225 21.6958 16.7246 20.7115 16.7246H19.8203V22.2941H20.7115C21.6958 22.2941 22.4938 21.4962 22.4938 20.5119V18.5068Z" fill="white"/>
<path d="M30.3492 14.6495C30.3492 13.6652 29.5512 12.8672 28.5669 12.8672H27.6758V26.3456H28.5669C29.5512 26.3456 30.3492 25.5476 30.3492 24.5633V14.6495Z" fill="white"/>
<path d="M11.8574 25.3408C11.8574 24.3565 12.6554 23.5586 13.6397 23.5586H14.5308V29.388H13.6397C12.6554 29.388 11.8574 28.5901 11.8574 27.6057V25.3408Z" fill="white"/>
<path d="M11.6504 11.0084C11.6504 10.3523 12.1823 9.82031 12.8386 9.82031H14.3238V14.9443H12.8386C12.1823 14.9443 11.6504 14.4124 11.6504 13.7562V11.0084Z" fill="white"/>
<path d="M38.3164 19.298H40.8745C40.8745 20.1263 41.2562 20.841 42.0196 21.442C42.7992 22.0429 43.7981 22.3434 45.0162 22.3434C46.3481 22.3434 47.3307 22.116 47.9642 21.6612C48.5976 21.1902 48.9143 20.5649 48.9143 19.7852C48.9143 18.5347 47.9398 17.7225 45.9908 17.349L42.7017 16.7399C41.3698 16.4963 40.3629 15.9846 39.6807 15.205C39.0148 14.4253 38.6818 13.4346 38.6818 12.2327C38.6818 10.8034 39.2341 9.61774 40.3385 8.6757C41.443 7.71743 42.921 7.23828 44.7726 7.23828C46.8191 7.23828 48.4027 7.75802 49.5233 8.79752C50.6603 9.82077 51.2288 11.1283 51.2288 12.7199H48.6706C48.6706 11.8917 48.3133 11.177 47.5988 10.576C46.8841 9.97507 45.942 9.67459 44.7726 9.67459C43.6681 9.67459 42.7992 9.92635 42.1658 10.4298C41.5485 10.9171 41.2399 11.518 41.2399 12.2327C41.2399 13.4346 42.0926 14.2061 43.7981 14.5473L46.478 15.0345C48.1997 15.3431 49.4584 15.8791 50.2543 16.6424C51.0664 17.3896 51.4725 18.4372 51.4725 19.7852C51.4725 21.2471 50.912 22.4489 49.7914 23.391C48.6706 24.3167 47.079 24.7797 45.0162 24.7797C42.9535 24.7797 41.3212 24.2599 40.1193 23.2204C38.9174 22.181 38.3164 20.8734 38.3164 19.298ZM53.7869 24.5361V7.48192H56.2232V13.5726H56.345C56.6212 13.2966 56.9216 13.053 57.2464 12.8418C58.0261 12.3545 58.9032 12.1109 59.8777 12.1109C61.3558 12.1109 62.5333 12.5738 63.4104 13.4996C64.3036 14.4091 64.7503 15.6517 64.7503 17.2271V24.5361H62.314V17.2271C62.314 16.4313 62.0298 15.7491 61.4613 15.1806C60.909 14.5959 60.2188 14.3035 59.3904 14.3035C58.4971 14.3035 57.7419 14.5959 57.1246 15.1806C56.5237 15.7491 56.2232 16.4313 56.2232 17.2271V24.5361H53.7869ZM70.1608 21.4663C70.8592 22.2135 71.7362 22.587 72.792 22.587C73.8477 22.587 74.7167 22.2135 75.3989 21.4663C76.0973 20.7029 76.4464 19.6959 76.4464 18.4453C76.4464 17.1946 76.0973 16.1958 75.3989 15.4486C74.7167 14.6853 73.8477 14.3035 72.792 14.3035C71.7362 14.3035 70.8592 14.6853 70.1608 15.4486C69.4786 16.1958 69.1375 17.1946 69.1375 18.4453C69.1375 19.6959 69.4786 20.7029 70.1608 21.4663ZM77.153 23.0255C76.016 24.1949 74.5624 24.7797 72.792 24.7797C71.0216 24.7797 69.5598 24.1949 68.4067 23.0255C67.2697 21.8562 66.7013 20.3293 66.7013 18.4453C66.7013 16.5612 67.2697 15.0345 68.4067 13.865C69.5598 12.6956 71.0216 12.1109 72.792 12.1109C74.5624 12.1109 76.016 12.6956 77.153 13.865C78.3062 15.0345 78.8828 16.5612 78.8828 18.4453C78.8828 20.3293 78.3062 21.8562 77.153 23.0255ZM90.0917 24.5361L89.848 23.0743H89.7262C88.8654 24.2113 87.6067 24.7797 85.95 24.7797C84.3258 24.7797 82.9857 24.203 81.9301 23.0499C80.8743 21.8967 80.3465 20.3619 80.3465 18.4453C80.3465 16.5287 80.8743 14.9939 81.9301 13.8407C82.9857 12.6875 84.3258 12.1109 85.95 12.1109C86.6646 12.1109 87.3143 12.2408 87.899 12.5007C88.5 12.7444 88.8897 12.9555 89.0684 13.1341C89.2471 13.2966 89.4664 13.524 89.7262 13.8163H89.848V7.48192H92.2844V24.5361H90.0917ZM83.7817 21.442C84.4638 22.2053 85.3084 22.587 86.3154 22.587C87.3224 22.587 88.1589 22.2053 88.8248 21.442C89.507 20.6786 89.848 19.6797 89.848 18.4453C89.848 17.2109 89.507 16.212 88.8248 15.4486C88.1589 14.6853 87.3224 14.3035 86.3154 14.3035C85.3084 14.3035 84.4638 14.6853 83.7817 15.4486C83.1158 16.212 82.7828 17.2109 82.7828 18.4453C82.7828 19.6797 83.1158 20.6786 83.7817 21.442ZM95.1984 24.5361V7.48192H97.6347V13.5726H97.7565C98.0327 13.2966 98.3332 13.053 98.658 12.8418C99.4376 12.3545 100.315 12.1109 101.289 12.1109C102.767 12.1109 103.945 12.5738 104.822 13.4996C105.715 14.4091 106.162 15.6517 106.162 17.2271V24.5361H103.725V17.2271C103.725 16.4313 103.441 15.7491 102.873 15.1806C102.321 14.5959 101.63 14.3035 100.802 14.3035C99.9086 14.3035 99.1533 14.5959 98.5361 15.1806C97.9352 15.7491 97.6347 16.4313 97.6347 17.2271V24.5361H95.1984ZM112.385 24.5361L118.598 7.48192H122.495L128.709 24.5361H125.906L124.445 20.5161H116.649L115.186 24.5361H112.385ZM117.501 18.2017H123.592L120.79 10.4055H120.303L117.501 18.2017ZM130.046 24.5361V7.48192H132.604V24.5361H130.046Z" fill="white"/>
</svg>
